<?xml version="1.0" standalone="no"?>
<!DOCTYPE svg PUBLIC "-//W3C//DTD SVG 20010904//EN"
 "http://www.w3.org/TR/2001/REC-SVG-20010904/DTD/svg10.dtd">
<svg version="1.0" xmlns="http://www.w3.org/2000/svg"
 width="500.000000pt" height="500.000000pt" viewBox="0 0 500.000000 500.000000"
 preserveAspectRatio="xMidYMid meet">
<metadata>
Created by potrace 1.11, written by Peter Selinger 2001-2013
</metadata>
<g transform="translate(0.000000,500.000000) scale(0.100000,-0.100000)"
fill="#000000" stroke="none">
<path d="M0 2500 l0 -2500 2500 0 2500 0 0 2500 0 2500 -2500 0 -2500 0 0
-2500z m3046 1131 c108 -38 214 -140 249 -237 9 -27 20 -55 23 -62 4 -7 84
-44 177 -81 327 -131 407 -179 457 -274 19 -35 23 -58 23 -137 0 -85 -3 -100
-27 -140 -14 -25 -41 -59 -60 -77 -18 -17 -215 -134 -438 -258 -222 -124 -406
-228 -408 -230 -2 -2 110 -125 249 -274 l253 -271 162 0 c151 0 163 -1 195
-23 76 -51 103 -145 57 -194 -21 -23 -23 -23 -274 -23 l-252 0 -68 73 c-37 39
-175 185 -306 324 l-238 252 0 75 c0 137 -51 251 -161 357 -160 155 -394 193
-594 98 -68 -32 -264 -175 -289 -210 -34 -49 -10 -110 49 -125 35 -9 54 1 160
85 151 120 254 156 378 131 81 -16 129 -42 189 -101 85 -85 122 -198 106 -322
-10 -75 -32 -117 -139 -263 -49 -67 -89 -124 -89 -128 0 -3 100 -6 221 -6 205
0 224 -1 258 -21 52 -29 74 -64 79 -125 4 -43 1 -55 -17 -73 l-21 -21 -835 0
c-816 0 -835 0 -889 20 -65 25 -143 95 -177 160 -22 41 -24 57 -24 195 0 173
19 293 72 455 162 498 540 885 1031 1054 90 31 261 70 346 78 25 3 31 10 51
64 43 120 138 214 257 255 73 25 192 25 264 0z"/>
<path d="M2831 3330 c-94 -94 -3 -242 123 -200 49 16 76 57 76 115 0 40 -5 52
-34 81 -30 30 -40 34 -84 34 -43 0 -55 -5 -81 -30z"/>
</g>
</svg>
